<svg width="201" height="78" viewBox="0 0 201 78" fill="none" xmlns="http://www.w3.org/2000/svg">
<path d="M36.8674 15.6541C31.0722 15.6617 26.0014 17.6393 21.6924 21.4894C16.8979 25.7757 14.3961 31.3252 13.2983 37.5891C13.1265 38.5892 13.4028 39.251 14.523 39.5292C20.9978 41.1535 26.7408 44.4095 32.2671 48.0039C34.8286 49.6733 36.9421 49.7936 39.4962 48.0716C44.44 44.7328 49.8842 42.4168 55.5002 40.4541C60.6307 38.6569 60.2125 39.9202 59.0923 34.288C56.8892 23.1738 47.8454 15.6241 36.8674 15.6541Z" fill="#1E1E1E"/>
<path d="M26.599 77.9702C26.599 77.9702 26.599 77.9702 26.599 77.9627C27.3084 77.9627 28.0254 78.0003 28.7348 77.9702C30.8408 77.895 32.0656 77.1581 33.0364 75.3609C38.7569 64.698 47.6738 57.9979 59.0252 54.4035C62.916 53.1703 66.9114 52.501 70.989 52.3732C72.4004 52.3281 73.0726 51.7566 72.9605 50.2301C72.8485 48.6885 72.9605 47.1395 72.9605 45.5904C72.9605 43.3946 72.7888 43.2292 70.6081 43.3495C58.368 44.0188 47.4124 48.2373 37.6591 55.6367C30.8333 60.8253 25.5236 67.2471 22.3272 75.3233C21.4908 77.4363 21.8418 78.0003 24.142 77.9778C24.9635 77.9702 25.785 77.9778 26.6064 77.9778L26.599 77.9702Z" fill="#1E1E1E"/>
<path d="M0.0649078 47.8688C0.0649078 50.7263 1.50126 52.3105 4.37396 52.6213C4.42624 52.6213 4.48599 52.6363 4.53826 52.6438C11.2147 53.5161 17.4356 55.6668 23.1038 59.374C24.9633 60.5846 25.1874 60.5395 26.6661 58.8701C27.6892 57.7121 28.7272 56.5766 29.7578 55.4261C31.1245 53.8996 31.117 53.7643 29.4068 52.5461C21.9164 47.2296 13.6269 44.2067 4.45611 43.7255C-0.599748 43.4548 0.154524 43.3344 0.0723758 47.8688H0.0649078Z" fill="#1E1E1E"/>
<path d="M43.0137 77.9698C46.5984 78.1126 48.6073 77.0975 50.5863 74.5257C52.3339 72.2398 54.7087 70.5929 57.1955 69.1416C61.5718 66.5849 66.3514 65.2314 71.2952 64.4268C72.4826 64.2313 73.0352 63.7124 72.9606 62.4641C72.8859 61.2535 72.8859 60.0353 72.9307 58.8246C72.9755 57.5839 72.4602 57.1176 71.2429 57.268C67.9794 57.6666 64.7308 58.1929 61.5718 59.1254C52.1546 61.9002 45.2616 68.1039 39.4142 75.7214C39.3469 75.8116 39.2947 75.9018 39.2349 75.9996C38.3985 77.3983 38.6375 77.8871 40.2207 77.9622C41.1467 78.0074 42.0802 77.9698 43.0137 77.9698Z" fill="#1E1E1E"/>
<path d="M2.52197 57.2533C0.513065 57.2006 0.0873873 57.6067 0.0724512 59.3588C0.0575152 60.6296 0.132196 61.9004 0.0724512 63.1637C0.0127069 64.3895 0.445853 64.9534 1.72289 65.0437C3.58243 65.179 5.38969 65.6528 7.18202 66.1641C10.3186 67.0589 13.1714 68.5403 15.9122 70.315C17.5775 71.3903 18.3393 71.1572 19.2504 69.5405C19.7657 68.6306 20.2287 67.6831 20.8037 66.8183C21.4908 65.7881 21.3265 65.0061 20.3855 64.2541C15.0608 59.9754 8.76525 58.2759 2.52197 57.2533Z" fill="#1E1E1E"/>
<path d="M37.4128 10.6535C37.4128 10.6535 37.4128 10.7212 37.4128 10.7588C38.3986 10.7588 39.3844 10.7588 40.3702 10.7588C41.0572 10.7588 41.5426 10.5181 41.6397 9.76618C41.9832 7.19444 42.3118 4.6227 42.6703 2.05848C42.8346 0.862852 42.3342 0.41167 41.1618 0.253756C38.0327 -0.174867 34.9409 -0.0395126 31.8342 0.501906C30.587 0.719977 30.1539 1.32155 30.3779 2.54727C30.8185 4.99117 31.2666 7.43507 31.6326 9.88649C31.7819 10.8716 32.342 10.9994 33.1411 10.9468C34.56 10.8415 35.9864 10.7513 37.4053 10.661L37.4128 10.6535Z" fill="#1E1E1E"/>
<path d="M27.1964 11.2474C26.3227 8.41244 25.5759 5.53239 24.3586 2.81026C24.0524 2.12596 23.3728 2.2538 22.7679 2.47939C20.1242 3.45695 17.7718 4.96841 15.4343 6.50995C14.568 7.08145 14.3738 7.8259 15.0161 8.75834C16.4126 10.8037 17.7792 12.8641 19.131 14.9395C19.6238 15.699 20.2064 15.7817 20.9532 15.3757C22.7828 14.3831 24.6125 13.398 26.4496 12.4129C26.9201 12.1648 27.2711 11.8565 27.2114 11.2474H27.1964Z" fill="#1E1E1E"/>
<path d="M45.8442 11.1723C45.762 11.7588 46.0234 12.1273 46.5088 12.3905C48.3908 13.3981 50.2727 14.4133 52.1547 15.4209C52.8417 15.7894 53.3944 15.6766 53.8424 14.9998C55.2016 12.9319 56.5683 10.8715 57.9499 8.82612C58.4876 8.02903 58.5996 7.2545 57.7408 6.66796C55.3062 4.98355 52.7969 3.41945 49.9889 2.41181C49.4139 2.20878 48.8463 2.28397 48.5924 2.90059C47.4722 5.59264 46.6582 8.38997 45.8442 11.1873V11.1723Z" fill="#1E1E1E"/>
<path d="M16.3529 18.4141C16.2334 18.1885 16.1662 17.9554 16.0168 17.8201C14.2245 16.1206 12.4397 14.4136 10.5951 12.7668C10.0051 12.2405 9.42257 12.5262 8.87741 13.0751C6.79382 15.1731 5.36743 17.7148 3.98584 20.2865C3.44814 21.2791 3.66472 22.0386 4.77745 22.5424C6.56978 23.3546 8.36958 24.1817 10.0872 25.1443C11.2 25.7759 11.8198 25.4075 12.3426 24.46C13.3582 22.6252 14.4635 20.858 15.8451 19.2714C16.0542 19.0307 16.1737 18.7149 16.3454 18.4216L16.3529 18.4141Z" fill="#1E1E1E"/>
<path d="M61.975 25.5122C62.0796 25.4822 62.1916 25.4596 62.2887 25.4145C64.4544 24.3467 66.6276 23.3014 68.7784 22.2036C69.5476 21.8125 69.4206 21.1132 69.0921 20.4816C67.7254 17.8271 66.2393 15.2629 64.1482 13.0897C63.3939 12.3001 62.7293 12.3828 62.0198 13.0446C60.4067 14.541 58.8086 16.0525 57.2029 17.5564C56.7175 18.0151 56.4561 18.4588 57.0162 19.0979C58.5098 20.8049 59.7047 22.7224 60.8175 24.6926C61.0564 25.1212 61.3925 25.5122 61.9676 25.5122H61.975Z" fill="#1E1E1E"/>
<path d="M64.3573 77.9922C64.3573 77.9922 64.3797 77.9847 64.3797 77.9922C66.6201 77.9922 68.868 77.9696 71.1084 77.9997C72.3481 78.0147 72.9306 77.4583 72.9306 76.2175C72.9306 74.676 72.9605 73.1344 72.9456 71.5854C72.9306 69.901 72.4676 69.4874 70.8471 69.8032C65.6194 70.8334 61.1311 73.3826 57.0088 76.6762C56.7101 76.9169 56.3292 77.165 56.486 77.6087C56.6428 78.0749 57.1208 77.9546 57.4793 77.9546C60.1827 77.9847 62.0572 77.9771 64.3573 77.9771V77.9922Z" fill="#1E1E1E"/>
<path d="M4.39641 38.0932C4.39641 38.0932 4.39641 38.1534 4.39641 38.1835C5.27017 38.1835 6.1514 38.1233 7.02516 38.1985C8.11549 38.2887 8.63825 37.8902 8.72787 36.7547C8.86976 34.8297 9.14608 32.9197 9.73605 31.0698C10.0049 30.2276 9.76593 29.6787 8.91457 29.408C6.93554 28.7763 4.95651 28.1296 2.97748 27.4829C1.97676 27.1596 1.40173 27.5205 1.22249 28.5658C0.886431 30.4607 0.453284 32.3482 0.214307 34.2582C-0.271115 38.1083 -0.226307 38.1083 3.58239 38.0857C3.85871 38.0857 4.12756 38.0857 4.40388 38.0857L4.39641 38.0932Z" fill="#1E1E1E"/>
<path d="M68.5395 38.1534C69.5253 38.1534 70.511 38.1383 71.4968 38.1534C72.4826 38.1684 72.968 37.83 72.968 36.7021C72.968 34.0326 72.505 31.4383 71.8777 28.8665C71.5864 27.6935 70.7948 27.2799 69.6223 27.6408C68.5768 27.9642 67.5014 28.2123 66.4858 28.6033C62.4904 30.1223 62.8787 29.1748 63.857 33.4836C63.9168 33.7543 63.969 34.0251 64.0138 34.2958C64.4221 36.9226 65.9331 38.2085 68.5469 38.1534H68.5395Z" fill="#1E1E1E"/>
<path d="M8.19782 77.9551C10.2291 77.9551 12.2604 77.9551 14.2843 77.9551C14.9041 77.9551 15.5688 77.9551 15.8227 77.2709C16.1139 76.5114 15.4493 76.1655 14.9639 75.8722C13.6943 75.1127 12.4098 74.3682 11.0805 73.7216C8.1082 72.2778 5.0239 71.1649 1.73797 70.646C0.528146 70.458 -0.00208418 70.849 0.0651281 72.1349C0.13234 73.3456 0.0875323 74.5638 0.0576601 75.782C0.0128519 77.331 0.774592 77.9852 2.2682 77.9702C4.23976 77.9476 6.21879 77.9702 8.19035 77.9702L8.19782 77.9551Z" fill="#1E1E1E"/>
<path d="M93.4976 24.8429H89.6068V3.72754H93.4976V12.2699H102.691V3.72754H106.582V24.8429H102.691V16.0448H93.4976V24.8429Z" fill="#1E1E1E"/>
<path d="M111.69 24.8429V3.72754H115.581V24.8429H111.69Z" fill="#1E1E1E"/>
<path d="M128.605 24.8429H120.689V3.72754H128.777C131.883 3.72754 134.318 4.68254 136.095 6.58503C137.873 8.44991 138.761 11.0367 138.761 14.3303C138.761 17.624 137.85 20.128 136.036 22.0155C134.258 23.9029 131.779 24.8429 128.597 24.8429H128.605ZM124.542 7.47235V21.1056H128.739C130.614 21.1056 132.077 20.4589 133.138 19.1655C134.198 17.8721 134.729 16.2328 134.729 14.2476C134.729 12.2624 134.206 10.6983 133.168 9.41995C132.107 8.12657 130.644 7.47987 128.769 7.47987H124.542V7.47235Z" fill="#1E1E1E"/>
<path d="M150.651 24.8429H142.734V3.72754H150.822C153.929 3.72754 156.364 4.68254 158.141 6.58503C159.918 8.44991 160.807 11.0367 160.807 14.3303C160.807 17.624 159.896 20.128 158.081 22.0155C156.304 23.9029 153.824 24.8429 150.643 24.8429H150.651ZM146.595 7.47235V21.1056H150.792C152.667 21.1056 154.131 20.4589 155.191 19.1655C156.252 17.8721 156.782 16.2328 156.782 14.2476C156.782 12.2624 156.259 10.6983 155.221 9.41995C154.16 8.12657 152.697 7.47987 150.822 7.47987H146.595V7.47235Z" fill="#1E1E1E"/>
<path d="M178.715 24.8429H164.78V3.72754H178.715V7.38211H168.671V12.3526H177.954V15.9847H168.671V21.1883H178.715V24.8429Z" fill="#1E1E1E"/>
<path d="M196.736 17.2705V3.72754H200.567V24.8429H198.043L186.773 11.4127V24.8429H182.942V3.72754H185.272L196.736 17.2705Z" fill="#1E1E1E"/>
<path d="M99.9948 47.2741L105.753 32.3024H110.121L101.436 53.4177H98.4863L89.7188 32.3024H94.1772L99.9948 47.2741Z" fill="#1E1E1E"/>
<path d="M128.09 53.4177H123.975L122.242 48.6202H114.804L113.071 53.4177H108.956L117.074 32.3024H120.054L128.082 53.4177H128.09ZM121.137 45.1009L118.553 37.8745L115.939 45.1009H121.137Z" fill="#1E1E1E"/>
<path d="M145.714 53.4177H131.039V32.3024H134.93V49.6729H145.714V53.4177Z" fill="#1E1E1E"/>
<path d="M163.481 53.4177H148.806V32.3024H152.697V49.6729H163.481V53.4177Z" fill="#1E1E1E"/>
<path d="M180.508 53.4177H166.572V32.3024H180.508V35.957H170.463V40.9275H179.746V44.5595H170.463V49.7632H180.508V53.4177Z" fill="#1E1E1E"/>
<path d="M196.542 32.3024H201L193.763 46.0183V53.4177H189.873V46.0183L182.696 32.3024H187.177L191.799 41.9051L196.542 32.3024Z" fill="#1E1E1E"/>
<path d="M116.828 77.804C115.82 77.804 114.886 77.5859 114.027 77.1498C113.168 76.7136 112.481 76.0895 111.959 75.2774L113.422 73.5929C114.266 74.8713 115.409 75.5105 116.843 75.5105C117.433 75.5105 117.918 75.3601 118.299 75.0743C118.672 74.7811 118.859 74.4126 118.859 73.9689C118.859 73.3674 118.448 72.8711 117.627 72.4575C117.425 72.3597 116.992 72.1792 116.327 71.9161C115.663 71.6378 115.147 71.3972 114.774 71.1791C113.392 70.367 112.705 69.2766 112.705 67.9156C112.705 66.8252 113.109 65.9229 113.915 65.2085C114.714 64.4791 115.76 64.1106 117.067 64.1106C118.777 64.1106 120.188 64.7197 121.294 65.9379L119.942 67.6975C119.583 67.2914 119.15 66.9756 118.635 66.75C118.12 66.5244 117.612 66.4116 117.112 66.4116C116.574 66.4116 116.148 66.5395 115.82 66.7951C115.491 67.0508 115.327 67.3892 115.327 67.8103C115.327 68.3743 115.693 68.8405 116.417 69.209L117.806 69.8557C118.366 70.0812 118.889 70.3219 119.374 70.5775C120.823 71.322 121.548 72.4048 121.548 73.8261C121.548 74.9991 121.107 75.9541 120.226 76.6986C119.344 77.443 118.209 77.8115 116.82 77.8115L116.828 77.804Z" fill="#1E1E1E"/>
<path d="M129.643 77.5859V66.6899H125.849V64.3212H135.901V66.6899H132.107V77.5859H129.643Z" fill="#1E1E1E"/>
<path d="M150.643 77.5859H148.059L146.969 74.5705H142.301L141.211 77.5859H138.627L143.728 64.3212H145.602L150.643 77.5859ZM146.274 72.3597L144.654 67.8178L143.011 72.3597H146.274Z" fill="#1E1E1E"/>
<path d="M161.965 64.3212H164.765L160.217 72.9387V77.5859H157.775V72.9387L153.264 64.3212H156.08L158.985 70.352L161.965 64.3212Z" fill="#1E1E1E"/>
<path d="M173.211 77.804C172.203 77.804 171.27 77.5859 170.411 77.1498C169.552 76.7136 168.865 76.0895 168.342 75.2774L169.806 73.5929C170.65 74.8713 171.792 75.5105 173.226 75.5105C173.816 75.5105 174.302 75.3601 174.683 75.0743C175.056 74.7811 175.243 74.4126 175.243 73.9689C175.243 73.3674 174.832 72.8711 174.01 72.4575C173.809 72.3597 173.376 72.1792 172.711 71.9161C172.046 71.6378 171.531 71.3972 171.158 71.1791C169.776 70.367 169.089 69.2766 169.089 67.9156C169.089 66.8252 169.492 65.9229 170.299 65.2085C171.098 64.4791 172.143 64.1106 173.45 64.1106C175.161 64.1106 176.572 64.7197 177.677 65.9379L176.326 67.6975C175.967 67.2914 175.534 66.9756 175.019 66.75C174.503 66.5244 173.996 66.4116 173.495 66.4116C172.957 66.4116 172.532 66.5395 172.203 66.7951C171.875 67.0508 171.71 67.3892 171.71 67.8103C171.71 68.3743 172.076 68.8405 172.801 69.209L174.19 69.8557C174.75 70.0812 175.273 70.3219 175.758 70.5775C177.207 71.322 177.931 72.4048 177.931 73.8261C177.931 74.9991 177.491 75.9541 176.609 76.6986C175.728 77.443 174.593 77.8115 173.204 77.8115L173.211 77.804Z" fill="#1E1E1E"/>
</svg>
