<svg width="54" height="58" viewBox="0 0 54 58" fill="none" xmlns="http://www.w3.org/2000/svg">
<path d="M27.1633 12.3807C22.8936 12.3862 19.1576 13.8333 15.9828 16.6504C12.4503 19.7867 10.6071 23.8474 9.79823 28.4307C9.67167 29.1625 9.87526 29.6467 10.7006 29.8503C15.471 31.0388 19.7023 33.4213 23.7739 36.0514C25.6612 37.2729 27.2184 37.3609 29.1001 36.1009C32.7426 33.6579 36.7538 31.9632 40.8915 30.5271C44.6715 29.2121 44.3634 30.1364 43.538 26.0153C41.9149 17.8829 35.2516 12.3587 27.1633 12.3807Z" fill="#FFF2E2"/>
<path d="M19.5973 57.9781C19.5973 57.9781 19.5973 57.9781 19.5973 57.9726C20.12 57.9726 20.6482 58.0001 21.1709 57.9781C22.7225 57.9231 23.6249 57.3839 24.3402 56.0688C28.5549 48.2666 35.1246 43.3641 43.488 40.734C46.3547 39.8317 49.2984 39.342 52.3026 39.2484C53.3426 39.2154 53.8378 38.7972 53.7552 37.6803C53.6727 36.5523 53.7552 35.4189 53.7552 34.2854C53.7552 32.6787 53.6287 32.5577 52.022 32.6457C43.0038 33.1354 34.932 36.2222 27.7461 41.6364C22.717 45.433 18.8049 50.1319 16.45 56.0413C15.8337 57.5874 16.0923 58.0001 17.787 57.9836C18.3923 57.9781 18.9975 57.9836 19.6028 57.9836L19.5973 57.9781Z" fill="#FFF2E2"/>
<path d="M0.0478516 35.9528C0.0478516 38.0437 1.10612 39.2028 3.22265 39.4302C3.26117 39.4302 3.30518 39.4412 3.3437 39.4467C8.26271 40.085 12.8461 41.6586 17.0223 44.3712C18.3924 45.2571 18.5574 45.2241 19.6469 44.0026C20.4007 43.1552 21.1655 42.3244 21.9248 41.4826C22.9317 40.3656 22.9262 40.2666 21.6662 39.3752C16.1474 35.4851 10.0399 33.2732 3.28318 32.9211C-0.441849 32.723 0.113879 32.6349 0.0533538 35.9528H0.0478516Z" fill="#FFF2E2"/>
<path d="M31.6913 57.9779C34.3324 58.0825 35.8125 57.3397 37.2706 55.4579C38.5581 53.7852 40.3079 52.5802 42.1401 51.5183C45.3644 49.6475 48.8859 48.6571 52.5284 48.0684C53.4032 47.9253 53.8104 47.5457 53.7554 46.6323C53.7003 45.7464 53.7003 44.8551 53.7334 43.9692C53.7664 43.0613 53.3867 42.7202 52.4899 42.8302C50.0854 43.1218 47.6919 43.507 45.3644 44.1893C38.4261 46.2196 33.3475 50.759 29.0393 56.3328C28.9897 56.3988 28.9512 56.4648 28.9072 56.5363C28.2909 57.5598 28.467 57.9174 29.6335 57.9724C30.3158 58.0054 31.0036 57.9779 31.6913 57.9779Z" fill="#FFF2E2"/>
<path d="M1.858 42.8194C0.377895 42.7808 0.0642668 43.078 0.0532623 44.36C0.0422578 45.2899 0.0972803 46.2198 0.0532623 47.1441C0.00924425 48.041 0.328375 48.4537 1.26926 48.5197C2.63932 48.6187 3.97087 48.9654 5.29141 49.3395C7.60235 49.9943 9.70421 51.0782 11.7235 52.3768C12.9505 53.1636 13.5118 52.993 14.183 51.81C14.5627 51.1443 14.9038 50.451 15.3275 49.8182C15.8337 49.0644 15.7127 48.4922 15.0194 47.942C11.0963 44.8112 6.45788 43.5677 1.858 42.8194Z" fill="#FFF2E2"/>
<path d="M27.5641 8.7218C27.5641 8.7218 27.5641 8.77132 27.5641 8.79884C28.2904 8.79884 29.0167 8.79884 29.743 8.79884C30.2492 8.79884 30.6069 8.62276 30.6784 8.07254C30.9315 6.19077 31.1736 4.309 31.4377 2.43273C31.5588 1.55787 31.1901 1.22774 30.3263 1.11219C28.0208 0.798561 25.7429 0.897602 23.4539 1.29376C22.5351 1.45333 22.2159 1.89351 22.381 2.79038C22.7056 4.57861 23.0358 6.36684 23.3054 8.16057C23.4154 8.88137 23.8281 8.97491 24.4168 8.93639C25.4623 8.85936 26.5132 8.79333 27.5586 8.72731L27.5641 8.7218Z" fill="#FFF2E2"/>
<path d="M20.0372 9.15633C19.3934 7.08198 18.8432 4.97462 17.9463 2.98281C17.7207 2.4821 17.22 2.57564 16.7743 2.74071C14.8265 3.456 13.0933 4.56195 11.3711 5.68991C10.7328 6.10808 10.5898 6.65281 11.063 7.33509C12.0919 8.8317 13.0988 10.3393 14.0947 11.8579C14.4579 12.4137 14.887 12.4742 15.4373 12.1771C16.7853 11.4508 18.1334 10.73 19.4869 10.0092C19.8336 9.82761 20.0922 9.60201 20.0482 9.15633H20.0372Z" fill="#FFF2E2"/>
<path d="M33.7771 9.10133C33.7166 9.5305 33.9092 9.80011 34.2668 9.99269C35.6534 10.73 37.04 11.4728 38.4265 12.2101C38.9327 12.4797 39.3399 12.3972 39.67 11.902C40.6714 10.3889 41.6784 8.88124 42.6963 7.38462C43.0924 6.80139 43.175 6.23465 42.5422 5.80548C40.7485 4.57297 38.8997 3.42851 36.8309 2.6912C36.4072 2.54264 35.989 2.59767 35.802 3.04885C34.9766 5.01866 34.3769 7.06549 33.7771 9.11233V9.10133Z" fill="#FFF2E2"/>
<path d="M12.0485 14.4005C11.9605 14.2354 11.911 14.0648 11.8009 13.9658C10.4804 12.7223 9.16534 11.4733 7.80628 10.2683C7.3716 9.88311 6.94243 10.0922 6.54077 10.4939C5.00564 12.029 3.95471 13.8887 2.93679 15.7705C2.54063 16.4968 2.70019 17.0525 3.52003 17.4212C4.84057 18.0154 6.16661 18.6207 7.43213 19.325C8.25197 19.7872 8.70865 19.5176 9.09381 18.8243C9.84212 17.4817 10.6564 16.1887 11.6744 15.0277C11.8284 14.8516 11.9165 14.6205 12.043 14.406L12.0485 14.4005Z" fill="#FFF2E2"/>
<path d="M45.6613 19.5941C45.7383 19.5721 45.8208 19.5556 45.8924 19.5226C47.488 18.7413 49.0892 17.9765 50.6738 17.1731C51.2405 16.887 51.147 16.3753 50.9049 15.9131C49.898 13.9708 48.803 12.0945 47.2624 10.5044C46.7067 9.92666 46.217 9.98719 45.6943 10.4714C44.5058 11.5663 43.3283 12.6723 42.1453 13.7727C41.7877 14.1084 41.5951 14.433 42.0078 14.9007C43.1082 16.1497 43.9886 17.5528 44.8084 18.9944C44.9845 19.308 45.2321 19.5941 45.6558 19.5941H45.6613Z" fill="#FFF2E2"/>
<path d="M47.4166 57.9941C47.4166 57.9941 47.4331 57.9886 47.4331 57.9941C49.0838 57.9941 50.74 57.9776 52.3906 57.9996C53.304 58.0106 53.7332 57.6034 53.7332 56.6955C53.7332 55.5676 53.7552 54.4396 53.7442 53.3061C53.7332 52.0736 53.3921 51.771 52.1981 52.0021C48.3465 52.7559 45.0396 54.6212 42.0024 57.0312C41.7823 57.2072 41.5017 57.3888 41.6172 57.7134C41.7328 58.0546 42.0849 57.9665 42.349 57.9665C44.3409 57.9886 45.7219 57.9831 47.4166 57.9831V57.9941Z" fill="#FFF2E2"/>
<path d="M3.23916 28.7997C3.23916 28.7997 3.23916 28.8437 3.23916 28.8657C3.88292 28.8657 4.53219 28.8217 5.17595 28.8767C5.97928 28.9427 6.36444 28.6511 6.43046 27.8203C6.53501 26.4117 6.73859 25.0141 7.17327 23.6606C7.37135 23.0443 7.19528 22.6427 6.56802 22.4446C5.10992 21.9824 3.65183 21.5092 2.19373 21.036C1.45643 20.7994 1.03275 21.0635 0.9007 21.8283C0.653099 23.2149 0.333968 24.596 0.157896 25.9935C-0.19975 28.8107 -0.166737 28.8107 2.63941 28.7942C2.84299 28.7942 3.04108 28.7942 3.24466 28.7942L3.23916 28.7997Z" fill="#FFF2E2"/>
<path d="M50.4979 28.8437C51.2242 28.8437 51.9505 28.8327 52.6768 28.8437C53.4031 28.8547 53.7607 28.6071 53.7607 27.7817C53.7607 25.8284 53.4196 23.9302 52.9574 22.0484C52.7428 21.19 52.1596 20.8874 51.2957 21.1515C50.5254 21.3881 49.7331 21.5697 48.9848 21.8558C46.0411 22.9673 46.3272 22.274 47.048 25.4268C47.092 25.6249 47.1305 25.8229 47.1635 26.021C47.4643 27.9431 48.5776 28.884 50.5034 28.8437H50.4979Z" fill="#FFF2E2"/>
<path d="M6.03936 57.9672C7.53597 57.9672 9.03258 57.9672 10.5237 57.9672C10.9804 57.9672 11.4701 57.9672 11.6572 57.4665C11.8717 56.9108 11.382 56.6576 11.0244 56.4431C10.089 55.8873 9.14263 55.3426 8.16323 54.8694C5.97333 53.813 3.7009 52.9986 1.27991 52.619C0.388546 52.4814 -0.00211393 52.7676 0.0474063 53.7084C0.0969266 54.5943 0.0639131 55.4857 0.0419041 56.377C0.00889058 57.5105 0.57012 57.9892 1.67057 57.9782C3.12317 57.9617 4.58126 57.9782 6.03386 57.9782L6.03936 57.9672Z" fill="#FFF2E2"/>
</svg>
