<svg width="381" height="101" viewBox="0 0 381 101" fill="none" xmlns="http://www.w3.org/2000/svg">
<path d="M88.8514 31.5208V0H97.8323V49.1639H91.9098L65.4982 17.9083V49.1639H56.5176V0H61.9802L88.8514 31.5208Z" fill="#FFF2E2"/>
<path d="M142.135 49.164H109.482V0H142.135V8.52104H118.587V20.1005H140.331V28.5508H118.587V40.6606H142.135V49.1816V49.164Z" fill="#FFF2E2"/>
<path d="M161.156 49.1639V8.78622H146.995V0H184.509V8.78622H170.349V49.1639H161.173H161.156Z" fill="#FFF2E2"/>
<path d="M200.544 49.1639H191.422V0H200.544V19.8883H222.094V0H231.216V49.1639H222.094V28.6745H200.544V49.1639Z" fill="#FFF2E2"/>
<path d="M279.691 49.1639H268.907L257.928 30.7429H251.882V49.1639H242.831V0H261.128C266.45 0 270.533 1.485 273.362 4.45499C276.19 7.42498 277.622 11.0668 277.622 15.3626C277.622 18.6862 276.738 21.6385 274.953 24.2019C273.185 26.783 270.622 28.5862 267.298 29.6645L279.673 49.1463L279.691 49.1639ZM261.146 8.45033H251.9V22.5578H260.156C262.825 22.5578 264.841 21.886 266.237 20.5601C267.634 19.2342 268.341 17.5194 268.341 15.4333C268.341 13.3473 267.705 11.7209 266.414 10.4126C265.124 9.10444 263.373 8.45033 261.164 8.45033H261.146Z" fill="#FFF2E2"/>
<path d="M327.263 49.1639H317.611L313.563 37.9911H296.132L292.083 49.1639H282.431L301.453 0H308.436L327.263 49.1639ZM310.964 29.806L304.918 12.976L298.801 29.806H310.964Z" fill="#FFF2E2"/>
<path d="M3.28839 100.414H0V74.2852H3.28839V85.4226H16.7594V74.2852H20.0122V100.414H16.7594V88.5694H3.28839V100.414Z" fill="#FFF2E2"/>
<path d="M27.084 100.414V74.2852H30.3368V100.414H27.084Z" fill="#FFF2E2"/>
<path d="M46.6708 100.414H37.4072V74.2852H47.0245C50.7016 74.2852 53.6184 75.4696 55.7575 77.8209C57.8966 80.1721 58.9751 83.3719 58.9751 87.4026C58.9751 91.4333 57.8789 94.5801 55.6868 96.9137C53.4946 99.2472 50.4893 100.414 46.6708 100.414ZM40.66 77.3966V97.3026H46.7769C49.5348 97.3026 51.6914 96.3656 53.2471 94.5094C54.8028 92.6531 55.5808 90.2489 55.5808 87.2965C55.5808 84.3442 54.8028 82.0283 53.2471 80.1898C51.7444 78.3335 49.5878 77.3966 46.8123 77.3966H40.66Z" fill="#FFF2E2"/>
<path d="M73.7557 100.414H64.4922V74.2852H74.1092C77.7863 74.2852 80.7034 75.4696 82.8425 77.8209C84.9816 80.1721 86.0599 83.3719 86.0599 87.4026C86.0599 91.4333 84.9638 94.5801 82.7717 96.9137C80.5796 99.2472 77.5743 100.414 73.7557 100.414ZM67.745 77.3966V97.3026H73.8617C76.6195 97.3026 78.7764 96.3656 80.3321 94.5094C81.8878 92.6531 82.6655 90.2489 82.6655 87.2965C82.6655 84.3442 81.8878 82.0283 80.3321 80.1898C78.8294 78.3335 76.6726 77.3966 73.8971 77.3966H67.745Z" fill="#FFF2E2"/>
<path d="M107.626 100.414H91.5742V74.2852H107.591V77.3966H94.827V85.5641H106.636V88.6755H94.827V97.3026H107.626V100.414Z" fill="#FFF2E2"/>
<path d="M130.855 93.3072V74.2852H134.108V100.414H132.553L116.571 81.498V100.414H113.318V74.2852H114.627L130.855 93.3072Z" fill="#FFF2E2"/>
<path d="M150.338 94.6154L158.788 74.2852H162.324L151.151 100.414H149.454L138.14 74.2852H141.852L150.338 94.6154Z" fill="#FFF2E2"/>
<path d="M184.069 100.414H180.462L177.705 93.4487H167.663L164.905 100.414H161.299L171.941 74.2852H173.497L184.069 100.414ZM176.573 90.3373L172.684 80.2959L168.795 90.3373H176.573Z" fill="#FFF2E2"/>
<path d="M205.671 100.414H188.275V74.2852H191.528V97.2319H205.671V100.414Z" fill="#FFF2E2"/>
<path d="M227.275 100.414H209.879V74.2852H213.132V97.2319H227.275V100.414Z" fill="#FFF2E2"/>
<path d="M247.535 100.414H231.483V74.2852H247.5V77.3966H234.736V85.5641H246.546V88.6755H234.736V97.3026H247.535V100.414Z" fill="#FFF2E2"/>
<path d="M268.006 74.2852H271.613L262.667 90.9383V100.414H259.414V90.9383L250.575 74.2852H254.182L261.041 87.7915L268.006 74.2852Z" fill="#FFF2E2"/>
<path d="M290.387 100.838C288.495 100.838 286.78 100.361 285.207 99.4237C283.634 98.4867 282.449 97.1432 281.618 95.393L284.164 93.4483C285.525 96.2769 287.593 97.6912 290.351 97.6912C291.854 97.6912 293.056 97.3023 293.958 96.5067C294.859 95.7112 295.301 94.7389 295.301 93.5898C295.301 92.1048 294.382 90.8496 292.544 89.8066C292.208 89.6121 291.306 89.1878 289.821 88.4984C288.707 87.9857 287.753 87.473 286.922 86.978C284.323 85.2985 283.033 83.2478 283.033 80.7905C283.033 78.7929 283.74 77.1311 285.154 75.8405C286.568 74.497 288.424 73.8252 290.74 73.8252C293.94 73.8252 296.468 75.1157 298.307 77.7145L295.973 79.7652C294.612 77.8559 292.879 76.9013 290.776 76.9013C289.556 76.9013 288.53 77.2372 287.735 77.9089C286.939 78.5807 286.533 79.4646 286.533 80.5784C286.533 81.9927 287.275 83.1595 288.76 84.0787C289.238 84.3616 290.263 84.8919 291.836 85.6698C293.587 86.5007 294.7 87.0664 295.195 87.4023C297.653 88.8873 298.872 90.885 298.872 93.413C298.872 95.6228 298.059 97.426 296.433 98.7873C294.859 100.149 292.844 100.838 290.387 100.838Z" fill="#FFF2E2"/>
<path d="M308.738 100.414V77.4673H300.959V74.2852H319.804V77.4673H312.026V100.414H308.738Z" fill="#FFF2E2"/>
<path d="M341.443 100.414H337.837L335.079 93.4487H325.037L322.279 100.414H318.673L329.315 74.2852H330.871L341.443 100.414ZM333.947 90.3373L330.058 80.2959L326.169 90.3373H333.947Z" fill="#FFF2E2"/>
<path d="M358.025 74.2852H361.631L352.686 90.9383V100.414H349.433V90.9383L340.594 74.2852H344.2L351.06 87.7915L358.025 74.2852Z" fill="#FFF2E2"/>
<path d="M371.531 100.838C369.64 100.838 367.925 100.361 366.351 99.4237C364.778 98.4867 363.594 97.1432 362.763 95.393L365.308 93.4483C366.67 96.2769 368.738 97.6912 371.496 97.6912C372.998 97.6912 374.201 97.3023 375.102 96.5067C376.004 95.7112 376.446 94.7389 376.446 93.5898C376.446 92.1048 375.526 90.8496 373.688 89.8066C373.352 89.6121 372.451 89.1878 370.966 88.4984C369.852 87.9857 368.897 87.473 368.066 86.978C365.468 85.2985 364.177 83.2478 364.177 80.7905C364.177 78.7929 364.884 77.1311 366.298 75.8405C367.713 74.497 369.569 73.8252 371.885 73.8252C375.085 73.8252 377.613 75.1157 379.451 77.7145L377.118 79.7652C375.756 77.8559 374.024 76.9013 371.92 76.9013C370.7 76.9013 369.675 77.2372 368.879 77.9089C368.084 78.5807 367.677 79.4646 367.677 80.5784C367.677 81.9927 368.42 83.1595 369.905 84.0787C370.382 84.3616 371.408 84.8919 372.981 85.6698C374.731 86.5007 375.845 87.0664 376.34 87.4023C378.797 88.8873 380.017 90.885 380.017 93.413C380.017 95.6228 379.204 97.426 377.577 98.7873C376.004 100.149 373.988 100.838 371.531 100.838Z" fill="#FFF2E2"/>
</svg>
